# xmcd
#
# Track frame offsets: 
#        150
#        13876
#        28762
#        41037
#        59373
#        76289
#        86204
#        98411
#        110062
#        123500
#        134920
#        149739
#        164065
#        175339
#        189089
#        202308
#        217659
#        229997
#        242629
#        253329
#
# Disc length: 3544 seconds
#
# Revision: 1
# Processed by: cddbd v1.5.2PL0 Copyright (c) Steve Scherf et al.
# Submitted via: ExactAudioCopy v0.99pb5
#
DISCID=340dd614
DTITLE=Sonny Terry and Brownie McGhee - The Essential Sonny Terry and Br
DTITLE=ownie McGhee [CD1]
DYEAR=2009
DGENRE=Blues
TTITLE0=Better Day
TTITLE1=Confusion
TTITLE2=Dark Road
TTITLE3=John Henry
TTITLE4=Make a Little Money
TTITLE5=Old Jabo
TTITLE6=If You Lose Your Money
TTITLE7=Guitar Highway
TTITLE8=Heart in Sorrow
TTITLE9=Preachin' the Blues
TTITLE10=Can't Help Myself
TTITLE11=Best of Friends
TTITLE12=Boogie Baby
TTITLE13=Don't Dog Your Woman
TTITLE14=Daisy
TTITLE15=Telephone Blues
TTITLE16=Dirty Mistreater Don't You Know
TTITLE17=Airplane Blues
TTITLE18=Gin Headed Woman
TTITLE19=Goin' Down Slow
EXTD=
EXTT0=
EXTT1=
EXTT2=
EXTT3=
EXTT4=
EXTT5=
EXTT6=
EXTT7=
EXTT8=
EXTT9=
EXTT10=
EXTT11=
EXTT12=
EXTT13=
EXTT14=
EXTT15=
EXTT16=
EXTT17=
EXTT18=
EXTT19=
PLAYORDER=
